# xmcd CD database file
#
# Track frame offsets:
#	150
#	18224
#	32104
#	54064
#	68998
#	82375
#	102855
#	125959
#	147106
#	160328
#	177809
#	198770
#	214624
#	234125
#
# Disc length: 3501 seconds
#
# Revision: 0
# Processed by: cddbd v1.5.2PL0 Copyright (c) Steve Scherf et al.
# Submitted via: CDex 1.79
#
DISCID=b80dab0e
DTITLE=Alan Gerber - Live
DYEAR=1900
DGENRE=Blues
TTITLE0=Above The Blue
TTITLE1=Should Be Happy
TTITLE2=Bar Room Madness
TTITLE3=Bad but not Too Bad
TTITLE4=Lucinda
TTITLE5=Slidewinder
TTITLE6=Sin To Take Life
TTITLE7=Sweet Micheline
TTITLE8=Happy Now
TTITLE9=Me and My Dog
TTITLE10=Dyin' Bed
TTITLE11=Can't Blame Me
TTITLE12=Perfect Day
TTITLE13=16 Greene
EXTD=
EXTT0=
EXTT1=
EXTT2=
EXTT3=
EXTT4=
EXTT5=
EXTT6=
EXTT7=
EXTT8=
EXTT9=
EXTT10=
EXTT11=
EXTT12=
EXTT13=
PLAYORDER=
